999
dxflib 2.0.4.8
  0
SECTION
  2
HEADER
  9
$ACADVER
  1
AC1015
  9
$HANDSEED
  5
FFFF
  9
$DIMASZ
 40
2.5
  9
$DIMGAP
 40
0.625
  9
$INSUNITS
 70
4
  9
$DIMEXO
 40
0.625
  9
$DIMTXT
 40
2.5
  9
$DIMSTYLE
  2
Standard
  9
$PLIMMIN
 10
0.0
 20
0.0
  9
$PLIMMAX
 10
210.0
 20
297.0
  9
$PINSBASE
 10
62.9999999999999929
 20
70.0
 30
0.0
  9
$DIMEXE
 40
1.25
  0
ENDSEC
  0
SECTION
  2
TABLES
  0
TABLE
  2
VPORT
  5
8
100
AcDbSymbolTable
 70
1
  0
VPORT
  5
30
100
AcDbSymbolTableRecord
100
AcDbViewportTableRecord
  2
*Active
 70
0
 10
0.0
 20
0.0
 11
1.0
 21
1.0
 12
286.3055555555554861
 22
148.5
 13
0.0
 23
0.0
 14
10.0
 24
10.0
 15
10.0
 25
10.0
 16
0.0
 26
0.0
 36
1.0
 17
0.0
 27
0.0
 37
0.0
 40
297.0
 41
1.92798353909465
 42
50.0
 43
0.0
 44
0.0
 50
0.0
 51
0.0
 71
0
 72
100
 73
1
 74
3
 75
1
 76
1
 77
0
 78
0
281
0
 65
1
110
0.0
120
0.0
130
0.0
111
1.0
121
0.0
131
0.0
112
0.0
122
1.0
132
0.0
 79
0
146
0.0
  0
ENDTAB
  0
TABLE
  2
LTYPE
  5
5
100
AcDbSymbolTable
 70
21
  0
LTYPE
  5
14
100
AcDbSymbolTableRecord
100
AcDbLinetypeTableRecord
  2
ByBlock
 70
0
  3

 72
65
 73
0
 40
0.0
  0
LTYPE
  5
15
100
AcDbSymbolTableRecord
100
AcDbLinetypeTableRecord
  2
ByLayer
 70
0
  3

 72
65
 73
0
 40
0.0
  0
LTYPE
  5
16
100
AcDbSymbolTableRecord
100
AcDbLinetypeTableRecord
  2
CONTINUOUS
 70
0
  3
Solid line
 72
65
 73
0
 40
0.0
  0
LTYPE
  5
31
100
AcDbSymbolTableRecord
100
AcDbLinetypeTableRecord
  2
DOT
 70
0
  3
Dot . . . . . . . . . . . . . . . . . . . . . .
 72
65
 73
2
 40
6.3499999999999996
 49
0.0
 74
0
 49
-6.3499999999999996
 74
0
  0
LTYPE
  5
32
100
AcDbSymbolTableRecord
100
AcDbLinetypeTableRecord
  2
DOT2
 70
0
  3
Dot (.5x) .....................................
 72
65
 73
2
 40
3.1749999999999998
 49
0.0
 74
0
 49
-3.1749999999999998
 74
0
  0
LTYPE
  5
33
100
AcDbSymbolTableRecord
100
AcDbLinetypeTableRecord
  2
DOTX2
 70
0
  3
Dot (2x) .  .  .  .  .  .  .  .  .  .  .  .  .
 72
65
 73
2
 40
12.6999999999999993
 49
0.0
 74
0
 49
-12.6999999999999993
 74
0
  0
LTYPE
  5
34
100
AcDbSymbolTableRecord
100
AcDbLinetypeTableRecord
  2
DASHED
 70
0
  3
Dashed __ __ __ __ __ __ __ __ __ __ __ __ __ _
 72
65
 73
2
 40
19.0500000000000007
 49
12.6999999999999993
 74
0
 49
-6.3499999999999996
 74
0
  0
LTYPE
  5
35
100
AcDbSymbolTableRecord
100
AcDbLinetypeTableRecord
  2
DASHED2
 70
0
  3
Dashed (.5x) _ _ _ _ _ _ _ _ _ _ _ _ _ _ _ _ _
 72
65
 73
2
 40
9.5250000000000004
 49
6.3499999999999996
 74
0
 49
-3.1749999999999998
 74
0
  0
LTYPE
  5
36
100
AcDbSymbolTableRecord
100
AcDbLinetypeTableRecord
  2
DASHEDX2
 70
0
  3
Dashed (2x) ____  ____  ____  ____  ____  ___
 72
65
 73
2
 40
38.1000000000000014
 49
25.3999999999999986
 74
0
 49
-12.6999999999999993
 74
0
  0
LTYPE
  5
37
100
AcDbSymbolTableRecord
100
AcDbLinetypeTableRecord
  2
DASHDOT
 70
0
  3
Dash dot __ . __ . __ . __ . __ . __ . __ . __
 72
65
 73
4
 40
25.3999999999999986
 49
12.6999999999999993
 74
0
 49
-6.3499999999999996
 74
0
 49
0.0
 74
0
 49
-6.3499999999999996
 74
0
  0
LTYPE
  5
38
100
AcDbSymbolTableRecord
100
AcDbLinetypeTableRecord
  2
DASHDOT2
 70
0
  3
Dash dot (.5x) _._._._._._._._._._._._._._._.
 72
65
 73
4
 40
12.6999999999999993
 49
6.3499999999999996
 74
0
 49
-3.1749999999999998
 74
0
 49
0.0
 74
0
 49
-3.1749999999999998
 74
0
  0
LTYPE
  5
39
100
AcDbSymbolTableRecord
100
AcDbLinetypeTableRecord
  2
DASHDOTX2
 70
0
  3
Dash dot (2x) ____  .  ____  .  ____  .  ___
 72
65
 73
4
 40
50.7999999999999972
 49
25.3999999999999986
 74
0
 49
-12.6999999999999993
 74
0
 49
0.0
 74
0
 49
-12.6999999999999993
 74
0
  0
LTYPE
  5
3A
100
AcDbSymbolTableRecord
100
AcDbLinetypeTableRecord
  2
DIVIDE
 70
0
  3
Divide ____ . . ____ . . ____ . . ____ . . ____
 72
65
 73
6
 40
31.75
 49
12.6999999999999993
 74
0
 49
-6.3499999999999996
 74
0
 49
0.0
 74
0
 49
-6.3499999999999996
 74
0
 49
0.0
 74
0
 49
-6.3499999999999996
 74
0
  0
LTYPE
  5
3B
100
AcDbSymbolTableRecord
100
AcDbLinetypeTableRecord
  2
DIVIDE2
 70
0
  3
Divide (.5x) __..__..__..__..__..__..__..__.._
 72
65
 73
6
 40
15.875
 49
6.3499999999999996
 74
0
 49
-3.1749999999999998
 74
0
 49
0.0
 74
0
 49
-3.1749999999999998
 74
0
 49
0.0
 74
0
 49
-3.1749999999999998
 74
0
  0
LTYPE
  5
3C
100
AcDbSymbolTableRecord
100
AcDbLinetypeTableRecord
  2
DIVIDEX2
 70
0
  3
Divide (2x) ________  .  .  ________  .  .  _
 72
65
 73
6
 40
63.5
 49
25.3999999999999986
 74
0
 49
-12.6999999999999993
 74
0
 49
0.0
 74
0
 49
-12.6999999999999993
 74
0
 49
0.0
 74
0
 49
-12.6999999999999993
 74
0
  0
LTYPE
  5
3D
100
AcDbSymbolTableRecord
100
AcDbLinetypeTableRecord
  2
CENTER
 70
0
  3
Center ____ _ ____ _ ____ _ ____ _ ____ _ ____
 72
65
 73
4
 40
50.7999999999999972
 49
31.75
 74
0
 49
-6.3499999999999996
 74
0
 49
6.3499999999999996
 74
0
 49
-6.3499999999999996
 74
0
  0
LTYPE
  5
3E
100
AcDbSymbolTableRecord
100
AcDbLinetypeTableRecord
  2
CENTER2
 70
0
  3
Center (.5x) ___ _ ___ _ ___ _ ___ _ ___ _ ___
 72
65
 73
4
 40
28.5749999999999993
 49
19.0500000000000007
 74
0
 49
-3.1749999999999998
 74
0
 49
3.1749999999999998
 74
0
 49
-3.1749999999999998
 74
0
  0
LTYPE
  5
3F
100
AcDbSymbolTableRecord
100
AcDbLinetypeTableRecord
  2
CENTERX2
 70
0
  3
Center (2x) ________  __  ________  __  _____
 72
65
 73
4
 40
101.5999999999999943
 49
63.5
 74
0
 49
-12.6999999999999993
 74
0
 49
12.6999999999999993
 74
0
 49
-12.6999999999999993
 74
0
  0
LTYPE
  5
40
100
AcDbSymbolTableRecord
100
AcDbLinetypeTableRecord
  2
BORDER
 70
0
  3
Border __ __ . __ __ . __ __ . __ __ . __ __ .
 72
65
 73
6
 40
44.4500000000000028
 49
12.6999999999999993
 74
0
 49
-6.3499999999999996
 74
0
 49
12.6999999999999993
 74
0
 49
-6.3499999999999996
 74
0
 49
0.0
 74
0
 49
-6.3499999999999996
 74
0
  0
LTYPE
  5
41
100
AcDbSymbolTableRecord
100
AcDbLinetypeTableRecord
  2
BORDER2
 70
0
  3
Border (.5x) __.__.__.__.__.__.__.__.__.__.__.
 72
65
 73
6
 40
22.2250000000000014
 49
6.3499999999999996
 74
0
 49
-3.1749999999999998
 74
0
 49
6.3499999999999996
 74
0
 49
-3.1749999999999998
 74
0
 49
0.0
 74
0
 49
-3.1749999999999998
 74
0
  0
LTYPE
  5
42
100
AcDbSymbolTableRecord
100
AcDbLinetypeTableRecord
  2
BORDERX2
 70
0
  3
Border (2x) ____  ____  .  ____  ____  .  ___
 72
65
 73
6
 40
88.9000000000000057
 49
25.3999999999999986
 74
0
 49
-12.6999999999999993
 74
0
 49
25.3999999999999986
 74
0
 49
-12.6999999999999993
 74
0
 49
0.0
 74
0
 49
-12.6999999999999993
 74
0
  0
ENDTAB
  0
TABLE
  2
LAYER
  5
2
100
AcDbSymbolTable
 70
3
  0
LAYER
  5
10
100
AcDbSymbolTableRecord
100
AcDbLayerTableRecord
  2
0
 70
0
 62
7
  6
CONTINUOUS
370
50
390
F
  0
LAYER
  5
43
100
AcDbSymbolTableRecord
100
AcDbLayerTableRecord
  2
dimensions
 70
0
 62
7
  6
CONTINUOUS
370
13
390
F
  0
LAYER
  5
44
100
AcDbSymbolTableRecord
100
AcDbLayerTableRecord
  2
back
 70
0
 62
7
  6
DASHED
370
13
390
F
  0
ENDTAB
  0
TABLE
  2
STYLE
  5
3
100
AcDbSymbolTable
 70
1
  0
STYLE
  5
11
100
AcDbSymbolTableRecord
100
AcDbTextStyleTableRecord
  2
Standard
 70
0
 40
0.0
 41
0.75
 50
0.0
 71
0
 42
2.5
  3
txt
  4

  0
ENDTAB
  0
TABLE
  2
VIEW
  5
6
100
AcDbSymbolTable
 70
0
  0
ENDTAB
  0
TABLE
  2
UCS
  5
7
100
AcDbSymbolTable
 70
0
  0
ENDTAB
  0
TABLE
  2
APPID
  5
9
100
AcDbSymbolTable
 70
1
  0
APPID
  5
12
100
AcDbSymbolTableRecord
100
AcDbRegAppTableRecord
  2
ACAD
 70
0
  0
ENDTAB
  0
TABLE
  2
DIMSTYLE
  5
A
100
AcDbSymbolTable
 70
1
100
AcDbDimStyleTable
 71
0
  0
DIMSTYLE
105
27
100
AcDbSymbolTableRecord
100
AcDbDimStyleTableRecord
  2
Standard
 41
2.5
 42
0.625
 43
3.75
 44
1.25
 70
0
 73
0
 74
0
 77
1
 78
8
140
2.5
141
2.5
143
0.03937007874016
147
0.625
171
3
172
1
271
2
272
2
274
3
278
44
283
0
284
8
340
11
  0
ENDTAB
  0
TABLE
  2
BLOCK_RECORD
  5
1
100
AcDbSymbolTable
 70
1
  0
BLOCK_RECORD
  5
1F
100
AcDbSymbolTableRecord
100
AcDbBlockTableRecord
  2
*Model_Space
340
22
  0
BLOCK_RECORD
  5
1B
100
AcDbSymbolTableRecord
100
AcDbBlockTableRecord
  2
*Paper_Space
340
1E
  0
BLOCK_RECORD
  5
23
100
AcDbSymbolTableRecord
100
AcDbBlockTableRecord
  2
*Paper_Space0
340
26
  0
BLOCK_RECORD
  5
45
100
AcDbSymbolTableRecord
100
AcDbBlockTableRecord
  2
button
340
0
  0
ENDTAB
  0
ENDSEC
  0
SECTION
  2
BLOCKS
  0
BLOCK
  5
20
100
AcDbEntity
  8
0
100
AcDbBlockBegin
  2
*Model_Space
 70
0
 10
0.0
 20
0.0
 30
0.0
  3
*Model_Space
  1

  0
ENDBLK
  5
21
100
AcDbEntity
  8
0
100
AcDbBlockEnd
  0
BLOCK
  5
1C
100
AcDbEntity
 67
1
  8
0
100
AcDbBlockBegin
  2
*Paper_Space
 70
0
 10
0.0
 20
0.0
 30
0.0
  3
*Paper_Space
  1

  0
ENDBLK
  5
1D
100
AcDbEntity
 67
1
  8
0
100
AcDbBlockEnd
  0
BLOCK
  5
24
100
AcDbEntity
  8
0
100
AcDbBlockBegin
  2
*Paper_Space0
 70
0
 10
0.0
 20
0.0
 30
0.0
  3
*Paper_Space0
  1

  0
ENDBLK
  5
25
100
AcDbEntity
  8
0
100
AcDbBlockEnd
  0
BLOCK
  5
46
100
AcDbEntity
  8
0
100
AcDbBlockBegin
  2
button
 70
0
 10
0.0
 20
0.0
 30
0.0
  3
button
  1

  0
LINE
  5
47
100
AcDbEntity
100
AcDbLine
  8
0
 62
256
370
-1
  6
ByLayer
 10
0.0
 20
0.0
 30
0.0
 11
12.5
 21
-0.0000000000000001
 31
0.0
  0
LINE
  5
48
100
AcDbEntity
100
AcDbLine
  8
0
 62
256
370
-1
  6
ByLayer
 10
12.5
 20
-0.0000000000000001
 30
0.0
 11
12.5
 21
17.5
 31
0.0
  0
LINE
  5
49
100
AcDbEntity
100
AcDbLine
  8
0
 62
256
370
-1
  6
ByLayer
 10
12.5
 20
17.5
 30
0.0
 11
0.0000000000000006
 21
17.5
 31
0.0
  0
LINE
  5
4A
100
AcDbEntity
100
AcDbLine
  8
0
 62
256
370
-1
  6
ByLayer
 10
0.0000000000000006
 20
17.5
 30
0.0
 11
0.0000000000000006
 21
0.0000000000000001
 31
0.0
  0
LINE
  5
4B
100
AcDbEntity
100
AcDbLine
  8
0
 62
256
370
-1
  6
ByLayer
 10
1.5
 20
1.5
 30
0.0
 11
11.0
 21
1.5
 31
0.0
  0
LINE
  5
4C
100
AcDbEntity
100
AcDbLine
  8
0
 62
256
370
-1
  6
ByLayer
 10
11.0
 20
1.5
 30
0.0
 11
11.0
 21
9.5
 31
0.0
  0
LINE
  5
4D
100
AcDbEntity
100
AcDbLine
  8
0
 62
256
370
-1
  6
ByLayer
 10
11.0
 20
9.5
 30
0.0
 11
1.5
 21
9.5
 31
0.0
  0
LINE
  5
4E
100
AcDbEntity
100
AcDbLine
  8
0
 62
256
370
-1
  6
ByLayer
 10
1.5
 20
9.5
 30
0.0
 11
1.5
 21
1.5
 31
0.0
  0
LINE
  5
4F
100
AcDbEntity
100
AcDbLine
  8
0
 62
256
370
-1
  6
ByLayer
 10
11.0000000000000018
 20
1.5
 30
0.0
 11
12.5000000000000018
 21
0.0
 31
0.0
  0
LINE
  5
50
100
AcDbEntity
100
AcDbLine
  8
0
 62
256
370
-1
  6
ByLayer
 10
12.5000000000000018
 20
10.0
 30
0.0
 11
0.0000000000000001
 21
10.0
 31
0.0
  0
LINE
  5
51
100
AcDbEntity
100
AcDbLine
  8
0
 62
256
370
-1
  6
ByLayer
 10
1.5000000000000002
 20
9.5
 30
0.0
 11
0.0000000000000001
 21
10.0
 31
0.0
  0
LINE
  5
52
100
AcDbEntity
100
AcDbLine
  8
0
 62
256
370
-1
  6
ByLayer
 10
11.0000000000000018
 20
9.5
 30
0.0
 11
12.5000000000000018
 21
10.0
 31
0.0
  0
CIRCLE
  5
53
100
AcDbEntity
100
AcDbCircle
  8
0
 62
256
370
-1
  6
ByLayer
 10
6.2500000000000009
 20
14.0
 30
0.0
 40
2.0
  0
LINE
  5
54
100
AcDbEntity
100
AcDbLine
  8
0
 62
256
370
-1
  6
ByLayer
 10
1.5
 20
1.5
 30
0.0
 11
-0.0000000000000002
 21
0.0
 31
0.0
  0
CIRCLE
  5
55
100
AcDbEntity
100
AcDbCircle
  8
back
 62
256
370
-1
  6
ByLayer
 10
2.4399999999999999
 20
1.3799999999999999
 30
0.0
 40
0.5
  0
CIRCLE
  5
56
100
AcDbEntity
100
AcDbCircle
  8
back
 62
256
370
-1
  6
ByLayer
 10
10.0600000000000005
 20
16.120000000000001
 30
0.0
 40
0.5
  0
CIRCLE
  5
57
100
AcDbEntity
100
AcDbCircle
  8
back
 62
256
370
-1
  6
ByLayer
 10
2.4399999999999999
 20
3.6699999999999999
 30
0.0
 40
0.5
  0
CIRCLE
  5
58
100
AcDbEntity
100
AcDbCircle
  8
back
 62
256
370
-1
  6
ByLayer
 10
10.0600000000000005
 20
3.6699999999999999
 30
0.0
 40
0.5
  0
CIRCLE
  5
59
100
AcDbEntity
100
AcDbCircle
  8
back
 62
256
370
-1
  6
ByLayer
 10
2.4399999999999999
 20
8.75
 30
0.0
 40
0.5
  0
CIRCLE
  5
5A
100
AcDbEntity
100
AcDbCircle
  8
back
 62
256
370
-1
  6
ByLayer
 10
10.0600000000000005
 20
8.75
 30
0.0
 40
0.5
  0
CIRCLE
  5
5B
100
AcDbEntity
100
AcDbCircle
  8
back
 62
256
370
-1
  6
ByLayer
 10
4.9800000000000004
 20
13.8300000000000001
 30
0.0
 40
0.5
  0
CIRCLE
  5
5C
100
AcDbEntity
100
AcDbCircle
  8
back
 62
256
370
-1
  6
ByLayer
 10
7.5199999999999996
 20
13.8300000000000001
 30
0.0
 40
0.5
  0
ENDBLK
  5
5D
100
AcDbEntity
  8
0
100
AcDbBlockEnd
  0
ENDSEC
  0
SECTION
  2
ENTITIES
  0
LINE
  5
5E
100
AcDbEntity
100
AcDbLine
  8
0
 62
256
370
-1
  6
ByLayer
 10
0.0
 20
0.0
 30
0.0
 11
84.0
 21
0.0
 31
0.0
  0
LINE
  5
5F
100
AcDbEntity
100
AcDbLine
  8
0
 62
256
370
-1
  6
ByLayer
 10
84.0
 20
0.0
 30
0.0
 11
84.0
 21
157.0
 31
0.0
  0
LINE
  5
60
100
AcDbEntity
100
AcDbLine
  8
0
 62
256
370
-1
  6
ByLayer
 10
84.0
 20
157.0
 30
0.0
 11
0.0
 21
157.0
 31
0.0
  0
LINE
  5
61
100
AcDbEntity
100
AcDbLine
  8
0
 62
256
370
-1
  6
ByLayer
 10
0.0
 20
157.0
 30
0.0
 11
0.0
 21
0.0
 31
0.0
  0
LINE
  5
62
100
AcDbEntity
100
AcDbLine
  8
0
 62
256
370
-1
  6
ByLayer
 10
7.0
 20
103.0
 30
0.0
 11
77.0
 21
103.0
 31
0.0
  0
LINE
  5
63
100
AcDbEntity
100
AcDbLine
  8
0
 62
256
370
-1
  6
ByLayer
 10
77.0
 20
103.0
 30
0.0
 11
77.0
 21
17.0
 31
0.0
  0
LINE
  5
64
100
AcDbEntity
100
AcDbLine
  8
0
 62
256
370
-1
  6
ByLayer
 10
77.0
 20
17.0
 30
0.0
 11
7.0
 21
17.0
 31
0.0
  0
LINE
  5
65
100
AcDbEntity
100
AcDbLine
  8
0
 62
256
370
-1
  6
ByLayer
 10
7.0
 20
17.0
 30
0.0
 11
7.0
 21
103.0
 31
0.0
  0
LINE
  5
66
100
AcDbEntity
100
AcDbLine
  8
0
 62
256
370
-1
  6
ByLayer
 10
-0.0000000000000003
 20
110.5
 30
0.0
 11
84.0000000000000142
 21
110.5
 31
0.0
  0
LINE
  5
67
100
AcDbEntity
100
AcDbLine
  8
0
 62
256
370
-1
  6
ByLayer
 10
84.0000000000000142
 20
139.5000000000000284
 30
0.0
 11
0.0
 21
139.5000000000000284
 31
0.0
  0
ARC
  5
68
100
AcDbEntity
  8
0
 62
256
370
-1
  6
ByLayer
100
AcDbCircle
 10
0.0
 20
0.0
 30
0.0
 40
0.0
100
AcDbArc
 50
0.0
 51
0.0
  0
ARC
  5
69
100
AcDbEntity
  8
0
 62
256
370
-1
  6
ByLayer
100
AcDbCircle
 10
15.0000000000000018
 20
134.5
 30
0.0
 40
2.0
100
AcDbArc
 50
90.0
 51
180.0
  0
ARC
  5
6A
100
AcDbEntity
  8
0
 62
256
370
-1
  6
ByLayer
100
AcDbCircle
 10
69.0
 20
134.5
 30
0.0
 40
2.0
100
AcDbArc
 50
0.0
 51
90.0
  0
ARC
  5
6B
100
AcDbEntity
  8
0
 62
256
370
-1
  6
ByLayer
100
AcDbCircle
 10
0.0
 20
0.0
 30
0.0
 40
0.0
100
AcDbArc
 50
0.0
 51
0.0
  0
ARC
  5
6C
100
AcDbEntity
  8
0
 62
256
370
-1
  6
ByLayer
100
AcDbCircle
 10
69.0
 20
115.5
 30
0.0
 40
2.0
100
AcDbArc
 50
270.0
 51
0.0
  0
ARC
  5
6D
100
AcDbEntity
  8
0
 62
256
370
-1
  6
ByLayer
100
AcDbCircle
 10
15.0000000000000018
 20
115.5
 30
0.0
 40
2.0
100
AcDbArc
 50
180.0
 51
270.0
  0
LINE
  5
6E
100
AcDbEntity
100
AcDbLine
  8
0
 62
256
370
-1
  6
ByLayer
 10
15.0000000000000018
 20
113.5
 30
0.0
 11
69.0
 21
113.5
 31
0.0
  0
LINE
  5
6F
100
AcDbEntity
100
AcDbLine
  8
0
 62
256
370
-1
  6
ByLayer
 10
71.0
 20
134.5
 30
0.0
 11
71.0
 21
115.5
 31
0.0
  0
LINE
  5
70
100
AcDbEntity
100
AcDbLine
  8
0
 62
256
370
-1
  6
ByLayer
 10
13.0
 20
134.5
 30
0.0
 11
13.0
 21
115.5
 31
0.0
  0
LINE
  5
71
100
AcDbEntity
100
AcDbLine
  8
0
 62
256
370
-1
  6
ByLayer
 10
69.0
 20
136.5
 30
0.0
 11
15.0
 21
136.5
 31
0.0
  0
INSERT
  5
72
100
AcDbEntity
100
AcDbBlockReference
  8
0
 62
256
370
-1
  6
ByLayer
  2
button
 10
48.25
 20
101.5
 30
0.0
 50
180.0
 44
1.0
 45
1.0
  0
INSERT
  5
73
100
AcDbEntity
100
AcDbBlockReference
  8
0
 62
256
370
-1
  6
ByLayer
  2
button
 10
65.75
 20
89.0
 30
0.0
 50
90.0
 44
1.0
 45
1.0
  0
INSERT
  5
74
100
AcDbEntity
100
AcDbBlockReference
  8
0
 62
256
370
-1
  6
ByLayer
  2
button
 10
18.25
 20
101.5
 30
0.0
 50
270.0
 44
1.0
 45
1.0
  0
CIRCLE
  5
75
100
AcDbEntity
100
AcDbCircle
  8
back
 62
256
370
-1
  6
ByLayer
 10
10.5
 20
23.0
 30
0.0
 40
3.0
  0
CIRCLE
  5
76
100
AcDbEntity
100
AcDbCircle
  8
back
 62
256
370
-1
  6
ByLayer
 10
73.5
 20
23.0
 30
0.0
 40
3.0
  0
INSERT
  5
77
100
AcDbEntity
100
AcDbBlockReference
  8
0
 62
256
370
-1
  6
ByLayer
  2
button
 10
65.75
 20
25.0
 30
0.0
 50
90.0
 44
1.0
 45
1.0
  0
INSERT
  5
78
100
AcDbEntity
100
AcDbBlockReference
  8
0
 62
256
370
-1
  6
ByLayer
  2
button
 10
18.2499999999999964
 20
37.5
 30
0.0
 50
270.0
 44
1.0
 45
1.0
  0
INSERT
  5
79
100
AcDbEntity
100
AcDbBlockReference
  8
0
 62
256
370
-1
  6
ByLayer
  2
button
 10
35.75
 20
37.5
 30
0.0
 50
360.0
 44
1.0
 45
1.0
  0
INSERT
  5
7A
100
AcDbEntity
100
AcDbBlockReference
  8
0
 62
256
370
-1
  6
ByLayer
  2
button
 10
35.75
 20
20.0
 30
0.0
 50
360.0
 44
1.0
 45
1.0
  0
CIRCLE
  5
7B
100
AcDbEntity
100
AcDbCircle
  8
0
 62
256
370
-1
  6
ByLayer
 10
20.0
 20
50.0
 30
0.0
 40
7.0
  0
CIRCLE
  5
7C
100
AcDbEntity
100
AcDbCircle
  8
0
 62
256
370
-1
  6
ByLayer
 10
64.0
 20
50.0
 30
0.0
 40
7.0
  0
POINT
  5
7D
100
AcDbEntity
100
AcDbPoint
  8
0
 62
256
370
-1
  6
ByLayer
 10
20.0
 20
50.0
 30
0.0
  0
POINT
  5
7E
100
AcDbEntity
100
AcDbPoint
  8
0
 62
256
370
-1
  6
ByLayer
 10
64.0
 20
50.0
 30
0.0
  0
INSERT
  5
7F
100
AcDbEntity
100
AcDbBlockReference
  8
0
 62
256
370
-1
  6
ByLayer
  2
button
 10
10.7499999999999964
 20
63.0
 30
0.0
 44
1.0
 45
1.0
  0
INSERT
  5
80
100
AcDbEntity
100
AcDbBlockReference
  8
0
 62
256
370
-1
  6
ByLayer
  2
button
 10
23.2499999999999964
 20
63.0
 30
0.0
 44
1.0
 45
1.0
  0
INSERT
  5
81
100
AcDbEntity
100
AcDbBlockReference
  8
0
 62
256
370
-1
  6
ByLayer
  2
button
 10
35.75
 20
63.0
 30
0.0
 44
1.0
 45
1.0
  0
INSERT
  5
82
100
AcDbEntity
100
AcDbBlockReference
  8
0
 62
256
370
-1
  6
ByLayer
  2
button
 10
48.25
 20
63.0
 30
0.0
 44
1.0
 45
1.0
  0
INSERT
  5
83
100
AcDbEntity
100
AcDbBlockReference
  8
0
 62
256
370
-1
  6
ByLayer
  2
button
 10
60.7500000000000142
 20
63.0
 30
0.0
 44
1.0
 45
1.0
  0
DIMENSION
  5
84
100
AcDbEntity
  8
dimensions
 62
256
370
-1
  6
ByLayer
100
AcDbDimension
 10
-0.0000000000000006
 20
-9.9999999999999982
 30
0.0
 11
5.3749999999999982
 21
-8.1249999999999982
 31
0.0
 70
0
 71
5
 72
1
 41
1.0
 42
0.0
  1

  3
Standard
100
AcDbAlignedDimension
 13
10.7499999999999964
 23
63.0
 33
0.0
 14
0.0
 24
0.0
 34
0.0
 50
0.0
100
AcDbRotatedDimension
  0
DIMENSION
  5
85
100
AcDbEntity
  8
dimensions
 62
256
370
-1
  6
ByLayer
100
AcDbDimension
 10
18.2499999999999893
 20
-20.0000000000000036
 30
0.0
 11
9.1249999999999964
 21
-18.1250000000000036
 31
0.0
 70
0
 71
5
 72
1
 41
1.0
 42
0.0
  1

  3
Standard
100
AcDbAlignedDimension
 13
0.0
 23
0.0
 33
0.0
 14
18.2499999999999929
 24
24.9999999999999964
 34
0.0
 50
0.0
100
AcDbRotatedDimension
  0
DIMENSION
  5
86
100
AcDbEntity
  8
dimensions
 62
256
370
-1
  6
ByLayer
100
AcDbDimension
 10
19.9999999999999929
 20
-30.0
 30
0.0
 11
10.0
 21
-28.125
 31
0.0
 70
0
 71
5
 72
1
 41
1.0
 42
0.0
  1

  3
Standard
100
AcDbAlignedDimension
 13
0.0
 23
0.0
 33
0.0
 14
20.0
 24
50.0
 34
0.0
 50
0.0
100
AcDbRotatedDimension
  0
DIMENSION
  5
87
100
AcDbEntity
  8
dimensions
 62
256
370
-1
  6
ByLayer
100
AcDbDimension
 10
35.7499999999999929
 20
-40.0
 30
0.0
 11
17.8750000000000036
 21
-38.125
 31
0.0
 70
0
 71
5
 72
1
 41
1.0
 42
0.0
  1

  3
Standard
100
AcDbAlignedDimension
 13
0.0
 23
0.0
 33
0.0
 14
35.75
 24
20.0
 34
0.0
 50
0.0
100
AcDbRotatedDimension
  0
DIMENSION
  5
88
100
AcDbEntity
  8
dimensions
 62
256
370
-1
  6
ByLayer
100
AcDbDimension
 10
48.2499999999999929
 20
-50.0
 30
0.0
 11
24.1250000000000036
 21
-48.125
 31
0.0
 70
0
 71
5
 72
1
 41
1.0
 42
0.0
  1

  3
Standard
100
AcDbAlignedDimension
 13
0.0
 23
0.0
 33
0.0
 14
48.25
 24
19.9999999999999964
 34
0.0
 50
0.0
100
AcDbRotatedDimension
  0
DIMENSION
  5
89
100
AcDbEntity
  8
dimensions
 62
256
370
-1
  6
ByLayer
100
AcDbDimension
 10
64.0
 20
-60.0
 30
0.0
 11
32.0
 21
-58.125
 31
0.0
 70
0
 71
5
 72
1
 41
1.0
 42
0.0
  1

  3
Standard
100
AcDbAlignedDimension
 13
0.0
 23
0.0
 33
0.0
 14
64.0
 24
50.0
 34
0.0
 50
0.0
100
AcDbRotatedDimension
  0
DIMENSION
  5
8A
100
AcDbEntity
  8
dimensions
 62
256
370
-1
  6
ByLayer
100
AcDbDimension
 10
65.75
 20
-70.0
 30
0.0
 11
32.875
 21
-68.125
 31
0.0
 70
0
 71
5
 72
1
 41
1.0
 42
0.0
  1

  3
Standard
100
AcDbAlignedDimension
 13
0.0
 23
0.0
 33
0.0
 14
65.75
 24
25.0
 34
0.0
 50
0.0
100
AcDbRotatedDimension
  0
DIMENSION
  5
8B
100
AcDbEntity
  8
dimensions
 62
256
370
-1
  6
ByLayer
100
AcDbDimension
 10
73.2500000000000142
 20
-80.0
 30
0.0
 11
36.6250000000000071
 21
-78.125
 31
0.0
 70
0
 71
5
 72
1
 41
1.0
 42
0.0
  1

  3
Standard
100
AcDbAlignedDimension
 13
0.0
 23
0.0
 33
0.0
 14
73.2500000000000142
 24
63.0
 34
0.0
 50
0.0
100
AcDbRotatedDimension
  0
DIMENSION
  5
8C
100
AcDbEntity
  8
dimensions
 62
256
370
-1
  6
ByLayer
100
AcDbDimension
 10
18.2500000000000036
 20
170.0
 30
0.0
 11
9.1249999999999982
 21
171.875
 31
0.0
 70
0
 71
5
 72
1
 41
1.0
 42
0.0
  1

  3
Standard
100
AcDbAlignedDimension
 13
0.0
 23
157.0
 33
0.0
 14
18.25
 24
101.5
 34
0.0
 50
0.0
100
AcDbRotatedDimension
  0
DIMENSION
  5
8D
100
AcDbEntity
  8
dimensions
 62
256
370
-1
  6
ByLayer
100
AcDbDimension
 10
35.7500000000000071
 20
180.0
 30
0.0
 11
17.8749999999999964
 21
181.875
 31
0.0
 70
0
 71
5
 72
1
 41
1.0
 42
0.0
  1

  3
Standard
100
AcDbAlignedDimension
 13
0.0
 23
157.0
 33
0.0
 14
35.75
 24
101.5
 34
0.0
 50
0.0
100
AcDbRotatedDimension
  0
DIMENSION
  5
8E
100
AcDbEntity
  8
dimensions
 62
256
370
-1
  6
ByLayer
100
AcDbDimension
 10
48.2500000000000071
 20
190.0
 30
0.0
 11
24.1249999999999964
 21
191.875
 31
0.0
 70
0
 71
5
 72
1
 41
1.0
 42
0.0
  1

  3
Standard
100
AcDbAlignedDimension
 13
0.0
 23
157.0
 33
0.0
 14
48.25
 24
101.5
 34
0.0
 50
0.0
100
AcDbRotatedDimension
  0
DIMENSION
  5
8F
100
AcDbEntity
  8
dimensions
 62
256
370
-1
  6
ByLayer
100
AcDbDimension
 10
65.75
 20
200.0
 30
0.0
 11
32.875
 21
201.875
 31
0.0
 70
0
 71
5
 72
1
 41
1.0
 42
0.0
  1

  3
Standard
100
AcDbAlignedDimension
 13
0.0
 23
157.0
 33
0.0
 14
65.75
 24
101.5
 34
0.0
 50
0.0
100
AcDbRotatedDimension
  0
DIMENSION
  5
90
100
AcDbEntity
  8
dimensions
 62
256
370
-1
  6
ByLayer
100
AcDbDimension
 10
-10.0
 20
20.0000000000000036
 30
0.0
 11
-11.875
 21
10.0
 31
0.0
 70
0
 71
5
 72
1
 41
1.0
 42
0.0
  1

  3
Standard
100
AcDbAlignedDimension
 13
0.0
 23
0.0
 33
0.0
 14
35.75
 24
20.0
 34
0.0
 50
90.0
100
AcDbRotatedDimension
  0
DIMENSION
  5
91
100
AcDbEntity
  8
dimensions
 62
256
370
-1
  6
ByLayer
100
AcDbDimension
 10
-19.9999999999999929
 20
25.0000000000000036
 30
0.0
 11
-21.8749999999999929
 21
12.5
 31
0.0
 70
0
 71
5
 72
1
 41
1.0
 42
0.0
  1

  3
Standard
100
AcDbAlignedDimension
 13
0.0
 23
0.0
 33
0.0
 14
18.2499999999999929
 24
25.0
 34
0.0
 50
90.0
100
AcDbRotatedDimension
  0
DIMENSION
  5
92
100
AcDbEntity
  8
dimensions
 62
256
370
-1
  6
ByLayer
100
AcDbDimension
 10
-30.0000000000000036
 20
37.5000000000000071
 30
0.0
 11
-31.8750000000000071
 21
18.7499999999999964
 31
0.0
 70
0
 71
5
 72
1
 41
1.0
 42
0.0
  1

  3
Standard
100
AcDbAlignedDimension
 13
0.0
 23
0.0
 33
0.0
 14
18.2499999999999964
 24
37.5
 34
0.0
 50
90.0
100
AcDbRotatedDimension
  0
DIMENSION
  5
93
100
AcDbEntity
  8
dimensions
 62
256
370
-1
  6
ByLayer
100
AcDbDimension
 10
-40.0
 20
50.0000000000000071
 30
0.0
 11
-41.875
 21
25.0
 31
0.0
 70
0
 71
5
 72
1
 41
1.0
 42
0.0
  1

  3
Standard
100
AcDbAlignedDimension
 13
0.0
 23
0.0
 33
0.0
 14
20.0
 24
50.0
 34
0.0
 50
90.0
100
AcDbRotatedDimension
  0
DIMENSION
  5
94
100
AcDbEntity
  8
dimensions
 62
256
370
-1
  6
ByLayer
100
AcDbDimension
 10
-49.9999999999999929
 20
55.0000000000000142
 30
0.0
 11
-51.875
 21
27.5
 31
0.0
 70
0
 71
5
 72
1
 41
1.0
 42
0.0
  1

  3
Standard
100
AcDbAlignedDimension
 13
0.0
 23
0.0
 33
0.0
 14
35.7500000000000071
 24
55.0
 34
0.0
 50
90.0
100
AcDbRotatedDimension
  0
DIMENSION
  5
95
100
AcDbEntity
  8
dimensions
 62
256
370
-1
  6
ByLayer
100
AcDbDimension
 10
-59.9999999999999858
 20
63.0000000000000071
 30
0.0
 11
-61.8749999999999858
 21
31.5
 31
0.0
 70
0
 71
5
 72
1
 41
1.0
 42
0.0
  1

  3
Standard
100
AcDbAlignedDimension
 13
0.0
 23
0.0
 33
0.0
 14
10.7499999999999964
 24
63.0
 34
0.0
 50
90.0
100
AcDbRotatedDimension
  0
DIMENSION
  5
96
100
AcDbEntity
  8
dimensions
 62
256
370
-1
  6
ByLayer
100
AcDbDimension
 10
-69.9999999999999858
 20
80.5000000000000142
 30
0.0
 11
-71.8749999999999858
 21
40.25
 31
0.0
 70
0
 71
5
 72
1
 41
1.0
 42
0.0
  1

  3
Standard
100
AcDbAlignedDimension
 13
0.0
 23
0.0
 33
0.0
 14
10.7499999999999982
 24
80.5
 34
0.0
 50
90.0
100
AcDbRotatedDimension
  0
DIMENSION
  5
97
100
AcDbEntity
  8
dimensions
 62
256
370
-1
  6
ByLayer
100
AcDbDimension
 10
-80.0
 20
84.0000000000000142
 30
0.0
 11
-81.875
 21
42.0
 31
0.0
 70
0
 71
5
 72
1
 41
1.0
 42
0.0
  1

  3
Standard
100
AcDbAlignedDimension
 13
0.0
 23
0.0
 33
0.0
 14
35.75
 24
84.0
 34
0.0
 50
90.0
100
AcDbRotatedDimension
  0
DIMENSION
  5
98
100
AcDbEntity
  8
dimensions
 62
256
370
-1
  6
ByLayer
100
AcDbDimension
 10
-90.0
 20
89.0000000000000142
 30
0.0
 11
-91.875
 21
44.5
 31
0.0
 70
0
 71
5
 72
1
 41
1.0
 42
0.0
  1

  3
Standard
100
AcDbAlignedDimension
 13
0.0
 23
0.0
 33
0.0
 14
18.2499999999999964
 24
89.0
 34
0.0
 50
90.0
100
AcDbRotatedDimension
  0
DIMENSION
  5
99
100
AcDbEntity
  8
dimensions
 62
256
370
-1
  6
ByLayer
100
AcDbDimension
 10
-100.0
 20
101.5000000000000142
 30
0.0
 11
-101.875
 21
50.7499999999999929
 31
0.0
 70
0
 71
5
 72
1
 41
1.0
 42
0.0
  1

  3
Standard
100
AcDbAlignedDimension
 13
0.0
 23
0.0
 33
0.0
 14
18.25
 24
101.5
 34
0.0
 50
90.0
100
AcDbRotatedDimension
  0
LINE
  5
9A
100
AcDbEntity
100
AcDbLine
  8
0
 62
256
370
-1
  6
ByLayer
 10
148.25
 20
101.5
 30
0.0
 11
135.75
 21
101.5
 31
0.0
  0
LINE
  5
9B
100
AcDbEntity
100
AcDbLine
  8
0
 62
256
370
-1
  6
ByLayer
 10
135.75
 20
101.5
 30
0.0
 11
135.75
 21
84.0
 31
0.0
  0
LINE
  5
9C
100
AcDbEntity
100
AcDbLine
  8
0
 62
256
370
-1
  6
ByLayer
 10
135.75
 20
84.0
 30
0.0
 11
148.25
 21
84.0
 31
0.0
  0
LINE
  5
9D
100
AcDbEntity
100
AcDbLine
  8
0
 62
256
370
-1
  6
ByLayer
 10
148.25
 20
84.0
 30
0.0
 11
148.25
 21
101.5
 31
0.0
  0
LINE
  5
9E
100
AcDbEntity
100
AcDbLine
  8
0
 62
256
370
-1
  6
ByLayer
 10
146.75
 20
100.0
 30
0.0
 11
137.25
 21
100.0
 31
0.0
  0
LINE
  5
9F
100
AcDbEntity
100
AcDbLine
  8
0
 62
256
370
-1
  6
ByLayer
 10
137.25
 20
100.0
 30
0.0
 11
137.25
 21
92.0
 31
0.0
  0
LINE
  5
A0
100
AcDbEntity
100
AcDbLine
  8
0
 62
256
370
-1
  6
ByLayer
 10
137.25
 20
92.0
 30
0.0
 11
146.75
 21
92.0
 31
0.0
  0
LINE
  5
A1
100
AcDbEntity
100
AcDbLine
  8
0
 62
256
370
-1
  6
ByLayer
 10
146.75
 20
92.0
 30
0.0
 11
146.75
 21
100.0
 31
0.0
  0
LINE
  5
A2
100
AcDbEntity
100
AcDbLine
  8
0
 62
256
370
-1
  6
ByLayer
 10
137.25
 20
100.0
 30
0.0
 11
135.75
 21
101.5
 31
0.0
  0
LINE
  5
A3
100
AcDbEntity
100
AcDbLine
  8
0
 62
256
370
-1
  6
ByLayer
 10
135.75
 20
91.5
 30
0.0
 11
148.25
 21
91.5
 31
0.0
  0
LINE
  5
A4
100
AcDbEntity
100
AcDbLine
  8
0
 62
256
370
-1
  6
ByLayer
 10
146.75
 20
92.0
 30
0.0
 11
148.25
 21
91.5
 31
0.0
  0
LINE
  5
A5
100
AcDbEntity
100
AcDbLine
  8
0
 62
256
370
-1
  6
ByLayer
 10
137.25
 20
92.0
 30
0.0
 11
135.75
 21
91.5
 31
0.0
  0
CIRCLE
  5
A6
100
AcDbEntity
100
AcDbCircle
  8
0
 62
256
370
-1
  6
ByLayer
 10
142.0
 20
87.5
 30
0.0
 40
2.0
  0
LINE
  5
A7
100
AcDbEntity
100
AcDbLine
  8
0
 62
256
370
-1
  6
ByLayer
 10
146.75
 20
100.0
 30
0.0
 11
148.25
 21
101.5
 31
0.0
  0
CIRCLE
  5
A8
100
AcDbEntity
100
AcDbCircle
  8
back
 62
256
370
-1
  6
ByLayer
 10
145.8100000000000023
 20
100.1200000000000045
 30
0.0
 40
0.5
  0
CIRCLE
  5
A9
100
AcDbEntity
100
AcDbCircle
  8
back
 62
256
370
-1
  6
ByLayer
 10
138.1899999999999977
 20
85.3799999999999955
 30
0.0
 40
0.5
  0
CIRCLE
  5
AA
100
AcDbEntity
100
AcDbCircle
  8
back
 62
256
370
-1
  6
ByLayer
 10
145.8100000000000023
 20
97.8299999999999983
 30
0.0
 40
0.5
  0
CIRCLE
  5
AB
100
AcDbEntity
100
AcDbCircle
  8
back
 62
256
370
-1
  6
ByLayer
 10
138.1899999999999977
 20
97.8299999999999983
 30
0.0
 40
0.5
  0
CIRCLE
  5
AC
100
AcDbEntity
100
AcDbCircle
  8
back
 62
256
370
-1
  6
ByLayer
 10
145.8100000000000023
 20
92.75
 30
0.0
 40
0.5
  0
CIRCLE
  5
AD
100
AcDbEntity
100
AcDbCircle
  8
back
 62
256
370
-1
  6
ByLayer
 10
138.1899999999999977
 20
92.75
 30
0.0
 40
0.5
  0
CIRCLE
  5
AE
100
AcDbEntity
100
AcDbCircle
  8
back
 62
256
370
-1
  6
ByLayer
 10
143.2700000000000102
 20
87.6700000000000017
 30
0.0
 40
0.5
  0
CIRCLE
  5
AF
100
AcDbEntity
100
AcDbCircle
  8
back
 62
256
370
-1
  6
ByLayer
 10
140.7299999999999898
 20
87.6700000000000017
 30
0.0
 40
0.5
  0
LINE
  5
B0
100
AcDbEntity
100
AcDbLine
  8
0
 62
256
370
-1
  6
ByLayer
 10
165.75
 20
89.0
 30
0.0
 11
165.75
 21
101.5
 31
0.0
  0
LINE
  5
B1
100
AcDbEntity
100
AcDbLine
  8
0
 62
256
370
-1
  6
ByLayer
 10
165.75
 20
101.5
 30
0.0
 11
148.25
 21
101.5
 31
0.0
  0
LINE
  5
B2
100
AcDbEntity
100
AcDbLine
  8
0
 62
256
370
-1
  6
ByLayer
 10
148.25
 20
101.5
 30
0.0
 11
148.25
 21
89.0
 31
0.0
  0
LINE
  5
B3
100
AcDbEntity
100
AcDbLine
  8
0
 62
256
370
-1
  6
ByLayer
 10
148.25
 20
89.0
 30
0.0
 11
165.75
 21
89.0
 31
0.0
  0
LINE
  5
B4
100
AcDbEntity
100
AcDbLine
  8
0
 62
256
370
-1
  6
ByLayer
 10
164.25
 20
90.5
 30
0.0
 11
164.25
 21
100.0
 31
0.0
  0
LINE
  5
B5
100
AcDbEntity
100
AcDbLine
  8
0
 62
256
370
-1
  6
ByLayer
 10
164.25
 20
100.0
 30
0.0
 11
156.25
 21
100.0
 31
0.0
  0
LINE
  5
B6
100
AcDbEntity
100
AcDbLine
  8
0
 62
256
370
-1
  6
ByLayer
 10
156.25
 20
100.0
 30
0.0
 11
156.25
 21
90.5
 31
0.0
  0
LINE
  5
B7
100
AcDbEntity
100
AcDbLine
  8
0
 62
256
370
-1
  6
ByLayer
 10
156.25
 20
90.5
 30
0.0
 11
164.25
 21
90.5
 31
0.0
  0
LINE
  5
B8
100
AcDbEntity
100
AcDbLine
  8
0
 62
256
370
-1
  6
ByLayer
 10
164.25
 20
100.0
 30
0.0
 11
165.75
 21
101.5
 31
0.0
  0
LINE
  5
B9
100
AcDbEntity
100
AcDbLine
  8
0
 62
256
370
-1
  6
ByLayer
 10
155.75
 20
101.5
 30
0.0
 11
155.75
 21
89.0
 31
0.0
  0
LINE
  5
BA
100
AcDbEntity
100
AcDbLine
  8
0
 62
256
370
-1
  6
ByLayer
 10
156.25
 20
90.5
 30
0.0
 11
155.75
 21
89.0
 31
0.0
  0
LINE
  5
BB
100
AcDbEntity
100
AcDbLine
  8
0
 62
256
370
-1
  6
ByLayer
 10
156.25
 20
100.0
 30
0.0
 11
155.75
 21
101.5
 31
0.0
  0
CIRCLE
  5
BC
100
AcDbEntity
100
AcDbCircle
  8
0
 62
256
370
-1
  6
ByLayer
 10
151.75
 20
95.25
 30
0.0
 40
2.0
  0
LINE
  5
BD
100
AcDbEntity
100
AcDbLine
  8
0
 62
256
370
-1
  6
ByLayer
 10
164.25
 20
90.5
 30
0.0
 11
165.75
 21
89.0
 31
0.0
  0
CIRCLE
  5
BE
100
AcDbEntity
100
AcDbCircle
  8
back
 62
256
370
-1
  6
ByLayer
 10
164.3700000000000045
 20
91.4399999999999977
 30
0.0
 40
0.5
  0
CIRCLE
  5
BF
100
AcDbEntity
100
AcDbCircle
  8
back
 62
256
370
-1
  6
ByLayer
 10
149.6299999999999955
 20
99.0600000000000023
 30
0.0
 40
0.5
  0
CIRCLE
  5
C0
100
AcDbEntity
100
AcDbCircle
  8
back
 62
256
370
-1
  6
ByLayer
 10
162.0799999999999841
 20
91.4399999999999977
 30
0.0
 40
0.5
  0
CIRCLE
  5
C1
100
AcDbEntity
100
AcDbCircle
  8
back
 62
256
370
-1
  6
ByLayer
 10
162.0799999999999841
 20
99.0600000000000023
 30
0.0
 40
0.5
  0
CIRCLE
  5
C2
100
AcDbEntity
100
AcDbCircle
  8
back
 62
256
370
-1
  6
ByLayer
 10
157.0
 20
91.4399999999999977
 30
0.0
 40
0.5
  0
CIRCLE
  5
C3
100
AcDbEntity
100
AcDbCircle
  8
back
 62
256
370
-1
  6
ByLayer
 10
157.0
 20
99.0600000000000023
 30
0.0
 40
0.5
  0
CIRCLE
  5
C4
100
AcDbEntity
100
AcDbCircle
  8
back
 62
256
370
-1
  6
ByLayer
 10
151.9200000000000159
 20
93.9799999999999898
 30
0.0
 40
0.5
  0
CIRCLE
  5
C5
100
AcDbEntity
100
AcDbCircle
  8
back
 62
256
370
-1
  6
ByLayer
 10
151.9200000000000159
 20
96.5200000000000102
 30
0.0
 40
0.5
  0
LINE
  5
C6
100
AcDbEntity
100
AcDbLine
  8
0
 62
256
370
-1
  6
ByLayer
 10
118.25
 20
101.5
 30
0.0
 11
118.25
 21
89.0
 31
0.0
  0
LINE
  5
C7
100
AcDbEntity
100
AcDbLine
  8
0
 62
256
370
-1
  6
ByLayer
 10
118.25
 20
89.0
 30
0.0
 11
135.75
 21
89.0
 31
0.0
  0
LINE
  5
C8
100
AcDbEntity
100
AcDbLine
  8
0
 62
256
370
-1
  6
ByLayer
 10
135.75
 20
89.0
 30
0.0
 11
135.75
 21
101.5
 31
0.0
  0
LINE
  5
C9
100
AcDbEntity
100
AcDbLine
  8
0
 62
256
370
-1
  6
ByLayer
 10
135.75
 20
101.5
 30
0.0
 11
118.25
 21
101.5
 31
0.0
  0
LINE
  5
CA
100
AcDbEntity
100
AcDbLine
  8
0
 62
256
370
-1
  6
ByLayer
 10
119.75
 20
100.0
 30
0.0
 11
119.75
 21
90.5
 31
0.0
  0
LINE
  5
CB
100
AcDbEntity
100
AcDbLine
  8
0
 62
256
370
-1
  6
ByLayer
 10
119.75
 20
90.5
 30
0.0
 11
127.75
 21
90.5
 31
0.0
  0
LINE
  5
CC
100
AcDbEntity
100
AcDbLine
  8
0
 62
256
370
-1
  6
ByLayer
 10
127.75
 20
90.5
 30
0.0
 11
127.75
 21
100.0
 31
0.0
  0
LINE
  5
CD
100
AcDbEntity
100
AcDbLine
  8
0
 62
256
370
-1
  6
ByLayer
 10
127.75
 20
100.0
 30
0.0
 11
119.75
 21
100.0
 31
0.0
  0
LINE
  5
CE
100
AcDbEntity
100
AcDbLine
  8
0
 62
256
370
-1
  6
ByLayer
 10
119.75
 20
90.5
 30
0.0
 11
118.25
 21
89.0
 31
0.0
  0
LINE
  5
CF
100
AcDbEntity
100
AcDbLine
  8
0
 62
256
370
-1
  6
ByLayer
 10
128.25
 20
89.0
 30
0.0
 11
128.25
 21
101.5
 31
0.0
  0
LINE
  5
D0
100
AcDbEntity
100
AcDbLine
  8
0
 62
256
370
-1
  6
ByLayer
 10
127.75
 20
100.0
 30
0.0
 11
128.25
 21
101.5
 31
0.0
  0
LINE
  5
D1
100
AcDbEntity
100
AcDbLine
  8
0
 62
256
370
-1
  6
ByLayer
 10
127.75
 20
90.5
 30
0.0
 11
128.25
 21
89.0
 31
0.0
  0
CIRCLE
  5
D2
100
AcDbEntity
100
AcDbCircle
  8
0
 62
256
370
-1
  6
ByLayer
 10
132.25
 20
95.2499999999999858
 30
0.0
 40
2.0
  0
LINE
  5
D3
100
AcDbEntity
100
AcDbLine
  8
0
 62
256
370
-1
  6
ByLayer
 10
119.75
 20
100.0
 30
0.0
 11
118.25
 21
101.5
 31
0.0
  0
CIRCLE
  5
D4
100
AcDbEntity
100
AcDbCircle
  8
back
 62
256
370
-1
  6
ByLayer
 10
119.6299999999999955
 20
99.0600000000000023
 30
0.0
 40
0.5
  0
CIRCLE
  5
D5
100
AcDbEntity
100
AcDbCircle
  8
back
 62
256
370
-1
  6
ByLayer
 10
134.3700000000000045
 20
91.4399999999999835
 30
0.0
 40
0.5
  0
CIRCLE
  5
D6
100
AcDbEntity
100
AcDbCircle
  8
back
 62
256
370
-1
  6
ByLayer
 10
121.9200000000000017
 20
99.0600000000000023
 30
0.0
 40
0.5
  0
CIRCLE
  5
D7
100
AcDbEntity
100
AcDbCircle
  8
back
 62
256
370
-1
  6
ByLayer
 10
121.9200000000000017
 20
91.4399999999999977
 30
0.0
 40
0.5
  0
CIRCLE
  5
D8
100
AcDbEntity
100
AcDbCircle
  8
back
 62
256
370
-1
  6
ByLayer
 10
127.0
 20
99.0600000000000023
 30
0.0
 40
0.5
  0
CIRCLE
  5
D9
100
AcDbEntity
100
AcDbCircle
  8
back
 62
256
370
-1
  6
ByLayer
 10
127.0
 20
91.4399999999999977
 30
0.0
 40
0.5
  0
CIRCLE
  5
DA
100
AcDbEntity
100
AcDbCircle
  8
back
 62
256
370
-1
  6
ByLayer
 10
132.0799999999999841
 20
96.519999999999996
 30
0.0
 40
0.5
  0
CIRCLE
  5
DB
100
AcDbEntity
100
AcDbCircle
  8
back
 62
256
370
-1
  6
ByLayer
 10
132.0799999999999841
 20
93.980000000000004
 30
0.0
 40
0.5
  0
DIMENSION
  5
DC
100
AcDbEntity
  8
dimensions
 62
256
370
-1
  6
ByLayer
100
AcDbDimension
 10
119.6299999999999955
 20
110.0
 30
0.0
 11
118.9399999999999977
 21
111.875
 31
0.0
 70
0
 71
5
 72
1
 41
1.0
 42
0.0
  1

  3
Standard
100
AcDbAlignedDimension
 13
118.25
 23
101.5
 33
0.0
 14
119.6299999999999955
 24
99.0600000000000023
 34
0.0
 50
0.0
100
AcDbRotatedDimension
  0
DIMENSION
  5
DD
100
AcDbEntity
  8
dimensions
 62
256
370
-1
  6
ByLayer
100
AcDbDimension
 10
121.9200000000000017
 20
120.0
 30
0.0
 11
120.085000000000008
 21
121.875
 31
0.0
 70
0
 71
5
 72
1
 41
1.0
 42
0.0
  1

  3
Standard
100
AcDbAlignedDimension
 13
118.25
 23
101.5
 33
0.0
 14
121.9200000000000017
 24
99.0600000000000023
 34
0.0
 50
0.0
100
AcDbRotatedDimension
  0
DIMENSION
  5
DE
100
AcDbEntity
  8
dimensions
 62
256
370
-1
  6
ByLayer
100
AcDbDimension
 10
127.0
 20
130.0
 30
0.0
 11
122.625
 21
131.875
 31
0.0
 70
0
 71
5
 72
1
 41
1.0
 42
0.0
  1

  3
Standard
100
AcDbAlignedDimension
 13
118.25
 23
101.5
 33
0.0
 14
127.0
 24
99.0600000000000023
 34
0.0
 50
0.0
100
AcDbRotatedDimension
  0
DIMENSION
  5
DF
100
AcDbEntity
  8
dimensions
 62
256
370
-1
  6
ByLayer
100
AcDbDimension
 10
132.0799999999999841
 20
140.0
 30
0.0
 11
125.164999999999992
 21
141.875
 31
0.0
 70
0
 71
5
 72
1
 41
1.0
 42
0.0
  1

  3
Standard
100
AcDbAlignedDimension
 13
118.25
 23
101.5
 33
0.0
 14
132.0799999999999841
 24
96.519999999999996
 34
0.0
 50
0.0
100
AcDbRotatedDimension
  0
DIMENSION
  5
E0
100
AcDbEntity
  8
dimensions
 62
256
370
-1
  6
ByLayer
100
AcDbDimension
 10
134.3700000000000045
 20
150.0
 30
0.0
 11
126.3100000000000023
 21
151.875
 31
0.0
 70
0
 71
5
 72
1
 41
1.0
 42
0.0
  1

  3
Standard
100
AcDbAlignedDimension
 13
118.25
 23
101.5
 33
0.0
 14
134.3700000000000045
 24
91.4399999999999835
 34
0.0
 50
0.0
100
AcDbRotatedDimension
  0
DIMENSION
  5
E1
100
AcDbEntity
  8
dimensions
 62
256
370
-1
  6
ByLayer
100
AcDbDimension
 10
138.1899999999999977
 20
160.0
 30
0.0
 11
128.2199999999999989
 21
161.875
 31
0.0
 70
0
 71
5
 72
1
 41
1.0
 42
0.0
  1

  3
Standard
100
AcDbAlignedDimension
 13
118.25
 23
101.5
 33
0.0
 14
138.1899999999999977
 24
97.8299999999999983
 34
0.0
 50
0.0
100
AcDbRotatedDimension
  0
DIMENSION
  5
E2
100
AcDbEntity
  8
dimensions
 62
256
370
-1
  6
ByLayer
100
AcDbDimension
 10
145.8100000000000023
 20
170.0
 30
0.0
 11
132.0300000000000011
 21
171.875
 31
0.0
 70
0
 71
5
 72
1
 41
1.0
 42
0.0
  1

  3
Standard
100
AcDbAlignedDimension
 13
118.25
 23
101.5
 33
0.0
 14
145.8100000000000023
 24
100.1200000000000045
 34
0.0
 50
0.0
100
AcDbRotatedDimension
  0
DIMENSION
  5
E3
100
AcDbEntity
  8
dimensions
 62
256
370
-1
  6
ByLayer
100
AcDbDimension
 10
149.6299999999999955
 20
180.0
 30
0.0
 11
133.9399999999999977
 21
181.875
 31
0.0
 70
0
 71
5
 72
1
 41
1.0
 42
0.0
  1

  3
Standard
100
AcDbAlignedDimension
 13
118.25
 23
101.5
 33
0.0
 14
149.6299999999999955
 24
99.0600000000000023
 34
0.0
 50
0.0
100
AcDbRotatedDimension
  0
DIMENSION
  5
E4
100
AcDbEntity
  8
dimensions
 62
256
370
-1
  6
ByLayer
100
AcDbDimension
 10
151.9200000000000159
 20
190.0
 30
0.0
 11
135.085000000000008
 21
191.875
 31
0.0
 70
0
 71
5
 72
1
 41
1.0
 42
0.0
  1

  3
Standard
100
AcDbAlignedDimension
 13
118.25
 23
101.5
 33
0.0
 14
151.9200000000000159
 24
96.5200000000000102
 34
0.0
 50
0.0
100
AcDbRotatedDimension
  0
DIMENSION
  5
E5
100
AcDbEntity
  8
dimensions
 62
256
370
-1
  6
ByLayer
100
AcDbDimension
 10
157.0
 20
200.0
 30
0.0
 11
137.625
 21
201.875
 31
0.0
 70
0
 71
5
 72
1
 41
1.0
 42
0.0
  1

  3
Standard
100
AcDbAlignedDimension
 13
118.25
 23
101.5
 33
0.0
 14
157.0
 24
99.0600000000000023
 34
0.0
 50
0.0
100
AcDbRotatedDimension
  0
DIMENSION
  5
E6
100
AcDbEntity
  8
dimensions
 62
256
370
-1
  6
ByLayer
100
AcDbDimension
 10
162.0799999999999841
 20
210.0
 30
0.0
 11
140.164999999999992
 21
211.875
 31
0.0
 70
0
 71
5
 72
1
 41
1.0
 42
0.0
  1

  3
Standard
100
AcDbAlignedDimension
 13
118.25
 23
101.5
 33
0.0
 14
162.0799999999999841
 24
99.0600000000000023
 34
0.0
 50
0.0
100
AcDbRotatedDimension
  0
DIMENSION
  5
E7
100
AcDbEntity
  8
dimensions
 62
256
370
-1
  6
ByLayer
100
AcDbDimension
 10
164.3700000000000045
 20
220.0
 30
0.0
 11
141.3100000000000023
 21
221.875
 31
0.0
 70
0
 71
5
 72
1
 41
1.0
 42
0.0
  1

  3
Standard
100
AcDbAlignedDimension
 13
118.25
 23
101.5
 33
0.0
 14
164.3700000000000045
 24
91.4399999999999977
 34
0.0
 50
0.0
100
AcDbRotatedDimension
  0
DIMENSION
  5
E8
100
AcDbEntity
  8
dimensions
 62
256
370
-1
  6
ByLayer
100
AcDbDimension
 10
180.0
 20
87.6700000000000017
 30
0.0
 11
178.125
 21
88.335000000000008
 31
0.0
 70
0
 71
5
 72
1
 41
1.0
 42
0.0
  1

  3
Standard
100
AcDbAlignedDimension
 13
165.75
 23
89.0
 33
0.0
 14
140.7299999999999898
 24
87.6700000000000017
 34
0.0
 50
90.0
100
AcDbRotatedDimension
  0
DIMENSION
  5
E9
100
AcDbEntity
  8
dimensions
 62
256
370
-1
  6
ByLayer
100
AcDbDimension
 10
190.0
 20
85.3799999999999812
 30
0.0
 11
188.125
 21
87.1899999999999977
 31
0.0
 70
0
 71
5
 72
1
 41
1.0
 42
0.0
  1

  3
Standard
100
AcDbAlignedDimension
 13
165.75
 23
89.0
 33
0.0
 14
138.1899999999999977
 24
85.3799999999999955
 34
0.0
 50
90.0
100
AcDbRotatedDimension
  0
DIMENSION
  5
EA
100
AcDbEntity
  8
dimensions
 62
256
370
-1
  6
ByLayer
100
AcDbDimension
 10
200.0
 20
91.4399999999999977
 30
0.0
 11
198.125
 21
90.2199999999999989
 31
0.0
 70
0
 71
5
 72
1
 41
1.0
 42
0.0
  1

  3
Standard
100
AcDbAlignedDimension
 13
165.75
 23
89.0
 33
0.0
 14
164.3700000000000045
 24
91.4399999999999977
 34
0.0
 50
90.0
100
AcDbRotatedDimension
  0
DIMENSION
  5
EB
100
AcDbEntity
  8
dimensions
 62
256
370
-1
  6
ByLayer
100
AcDbDimension
 10
210.0
 20
92.7499999999999858
 30
0.0
 11
208.125
 21
90.875
 31
0.0
 70
0
 71
5
 72
1
 41
1.0
 42
0.0
  1

  3
Standard
100
AcDbAlignedDimension
 13
165.75
 23
89.0
 33
0.0
 14
145.8100000000000023
 24
92.75
 34
0.0
 50
90.0
100
AcDbRotatedDimension
  0
DIMENSION
  5
EC
100
AcDbEntity
  8
dimensions
 62
256
370
-1
  6
ByLayer
100
AcDbDimension
 10
220.0
 20
93.9799999999999756
 30
0.0
 11
218.125
 21
91.4899999999999949
 31
0.0
 70
0
 71
5
 72
1
 41
1.0
 42
0.0
  1

  3
Standard
100
AcDbAlignedDimension
 13
165.75
 23
89.0
 33
0.0
 14
151.9200000000000159
 24
93.9799999999999898
 34
0.0
 50
90.0
100
AcDbRotatedDimension
  0
DIMENSION
  5
ED
100
AcDbEntity
  8
dimensions
 62
256
370
-1
  6
ByLayer
100
AcDbDimension
 10
230.0
 20
96.519999999999996
 30
0.0
 11
228.125
 21
92.7600000000000051
 31
0.0
 70
0
 71
5
 72
1
 41
1.0
 42
0.0
  1

  3
Standard
100
AcDbAlignedDimension
 13
165.75
 23
89.0
 33
0.0
 14
151.9200000000000159
 24
96.5200000000000102
 34
0.0
 50
90.0
100
AcDbRotatedDimension
  0
DIMENSION
  5
EE
100
AcDbEntity
  8
dimensions
 62
256
370
-1
  6
ByLayer
100
AcDbDimension
 10
240.0
 20
97.8299999999999841
 30
0.0
 11
238.125
 21
93.414999999999992
 31
0.0
 70
0
 71
5
 72
1
 41
1.0
 42
0.0
  1

  3
Standard
100
AcDbAlignedDimension
 13
165.75
 23
89.0
 33
0.0
 14
145.8100000000000023
 24
97.8299999999999983
 34
0.0
 50
90.0
100
AcDbRotatedDimension
  0
DIMENSION
  5
EF
100
AcDbEntity
  8
dimensions
 62
256
370
-1
  6
ByLayer
100
AcDbDimension
 10
250.0
 20
99.0599999999999881
 30
0.0
 11
248.125
 21
94.0300000000000011
 31
0.0
 70
0
 71
5
 72
1
 41
1.0
 42
0.0
  1

  3
Standard
100
AcDbAlignedDimension
 13
165.75
 23
89.0
 33
0.0
 14
162.0799999999999841
 24
99.0600000000000023
 34
0.0
 50
90.0
100
AcDbRotatedDimension
  0
DIMENSION
  5
F0
100
AcDbEntity
  8
dimensions
 62
256
370
-1
  6
ByLayer
100
AcDbDimension
 10
260.0
 20
100.1199999999999903
 30
0.0
 11
258.125
 21
94.5600000000000023
 31
0.0
 70
0
 71
5
 72
1
 41
1.0
 42
0.0
  1

  3
Standard
100
AcDbAlignedDimension
 13
165.75
 23
89.0
 33
0.0
 14
145.8100000000000023
 24
100.1200000000000045
 34
0.0
 50
90.0
100
AcDbRotatedDimension
  0
DIMENSION
  5
F1
100
AcDbEntity
  8
dimensions
 62
256
370
-1
  6
ByLayer
100
AcDbDimension
 10
140.7299999999999898
 20
80.0
 30
0.0
 11
129.4900000000000091
 21
81.875
 31
0.0
 70
0
 71
5
 72
1
 41
1.0
 42
0.0
  1

  3
Standard
100
AcDbAlignedDimension
 13
118.25
 23
89.0
 33
0.0
 14
140.7299999999999898
 24
87.6700000000000017
 34
0.0
 50
0.0
100
AcDbRotatedDimension
  0
DIMENSION
  5
F2
100
AcDbEntity
  8
dimensions
 62
256
370
-1
  6
ByLayer
100
AcDbDimension
 10
143.2700000000000102
 20
70.0
 30
0.0
 11
130.7599999999999909
 21
71.875
 31
0.0
 70
0
 71
5
 72
1
 41
1.0
 42
0.0
  1

  3
Standard
100
AcDbAlignedDimension
 13
118.25
 23
89.0
 33
0.0
 14
143.2700000000000102
 24
87.6700000000000017
 34
0.0
 50
0.0
100
AcDbRotatedDimension
  0
INSERT
  5
F3
100
AcDbEntity
100
AcDbBlockReference
  8
0
 62
256
370
-1
  6
ByLayer
  2
button
 10
165.75
 20
25.0
 30
0.0
 50
90.0
 44
1.0
 45
1.0
  0
INSERT
  5
F4
100
AcDbEntity
100
AcDbBlockReference
  8
0
 62
256
370
-1
  6
ByLayer
  2
button
 10
118.25
 20
37.5
 30
0.0
 50
270.0
 44
1.0
 45
1.0
  0
INSERT
  5
F5
100
AcDbEntity
100
AcDbBlockReference
  8
0
 62
256
370
-1
  6
ByLayer
  2
button
 10
135.75
 20
37.5
 30
0.0
 50
360.0
 44
1.0
 45
1.0
  0
INSERT
  5
F6
100
AcDbEntity
100
AcDbBlockReference
  8
0
 62
256
370
-1
  6
ByLayer
  2
button
 10
135.75
 20
20.0
 30
0.0
 50
360.0
 44
1.0
 45
1.0
  0
DIMENSION
  5
F7
100
AcDbEntity
  8
dimensions
 62
256
370
-1
  6
ByLayer
100
AcDbDimension
 10
180.0
 20
21.3799999999999955
 30
0.0
 11
178.125
 21
23.1899999999999977
 31
0.0
 70
0
 71
5
 72
1
 41
1.0
 42
0.0
  1

  3
Standard
100
AcDbAlignedDimension
 13
165.75
 23
25.0
 33
0.0
 14
138.1899999999999977
 24
21.379999999999999
 34
0.0
 50
90.0
100
AcDbRotatedDimension
  0
DIMENSION
  5
F8
100
AcDbEntity
  8
dimensions
 62
256
370
-1
  6
ByLayer
100
AcDbDimension
 10
190.0
 20
23.6699999999999946
 30
0.0
 11
188.125
 21
24.3350000000000009
 31
0.0
 70
0
 71
5
 72
1
 41
1.0
 42
0.0
  1

  3
Standard
100
AcDbAlignedDimension
 13
165.75
 23
25.0
 33
0.0
 14
138.1899999999999977
 24
23.6700000000000017
 34
0.0
 50
90.0
100
AcDbRotatedDimension
  0
DIMENSION
  5
F9
100
AcDbEntity
  8
dimensions
 62
256
370
-1
  6
ByLayer
100
AcDbDimension
 10
200.0
 20
27.4399999999999942
 30
0.0
 11
198.125
 21
26.2199999999999989
 31
0.0
 70
0
 71
5
 72
1
 41
1.0
 42
0.0
  1

  3
Standard
100
AcDbAlignedDimension
 13
165.75
 23
25.0
 33
0.0
 14
164.3700000000000045
 24
27.4399999999999977
 34
0.0
 50
90.0
100
AcDbRotatedDimension
  0
DIMENSION
  5
FA
100
AcDbEntity
  8
dimensions
 62
256
370
-1
  6
ByLayer
100
AcDbDimension
 10
210.0
 20
29.9799999999999862
 30
0.0
 11
208.125
 21
27.4899999999999949
 31
0.0
 70
0
 71
5
 72
1
 41
1.0
 42
0.0
  1

  3
Standard
100
AcDbAlignedDimension
 13
165.75
 23
25.0
 33
0.0
 14
151.9200000000000159
 24
29.9799999999999933
 34
0.0
 50
90.0
100
AcDbRotatedDimension
  0
DIMENSION
  5
FB
100
AcDbEntity
  8
dimensions
 62
256
370
-1
  6
ByLayer
100
AcDbDimension
 10
220.0
 20
32.5200000000000031
 30
0.0
 11
218.125
 21
28.7600000000000051
 31
0.0
 70
0
 71
5
 72
1
 41
1.0
 42
0.0
  1

  3
Standard
100
AcDbAlignedDimension
 13
165.75
 23
25.0
 33
0.0
 14
151.9200000000000159
 24
32.5200000000000102
 34
0.0
 50
90.0
100
AcDbRotatedDimension
  0
DIMENSION
  5
FC
100
AcDbEntity
  8
dimensions
 62
256
370
-1
  6
ByLayer
100
AcDbDimension
 10
230.0
 20
33.8299999999999841
 30
0.0
 11
228.125
 21
29.4149999999999991
 31
0.0
 70
0
 71
5
 72
1
 41
1.0
 42
0.0
  1

  3
Standard
100
AcDbAlignedDimension
 13
165.75
 23
25.0
 33
0.0
 14
143.2700000000000102
 24
33.8299999999999983
 34
0.0
 50
90.0
100
AcDbRotatedDimension
  0
DIMENSION
  5
FD
100
AcDbEntity
  8
dimensions
 62
256
370
-1
  6
ByLayer
100
AcDbDimension
 10
240.0
 20
35.0599999999999881
 30
0.0
 11
238.125
 21
30.0300000000000011
 31
0.0
 70
0
 71
5
 72
1
 41
1.0
 42
0.0
  1

  3
Standard
100
AcDbAlignedDimension
 13
165.75
 23
25.0
 33
0.0
 14
162.0799999999999841
 24
35.0600000000000023
 34
0.0
 50
90.0
100
AcDbRotatedDimension
  0
DIMENSION
  5
FE
100
AcDbEntity
  8
dimensions
 62
256
370
-1
  6
ByLayer
100
AcDbDimension
 10
250.0
 20
36.1199999999999903
 30
0.0
 11
248.125
 21
30.5600000000000023
 31
0.0
 70
0
 71
5
 72
1
 41
1.0
 42
0.0
  1

  3
Standard
100
AcDbAlignedDimension
 13
165.75
 23
25.0
 33
0.0
 14
145.8100000000000023
 24
36.1200000000000045
 34
0.0
 50
90.0
100
AcDbRotatedDimension
  0
DIMENSION
  5
FF
100
AcDbEntity
  8
dimensions
 62
256
370
-1
  6
ByLayer
100
AcDbDimension
 10
260.0
 20
38.8799999999999883
 30
0.0
 11
258.125
 21
31.9400000000000013
 31
0.0
 70
0
 71
5
 72
1
 41
1.0
 42
0.0
  1

  3
Standard
100
AcDbAlignedDimension
 13
165.75
 23
25.0
 33
0.0
 14
138.1899999999999977
 24
38.8800000000000026
 34
0.0
 50
90.0
100
AcDbRotatedDimension
  0
DIMENSION
  5
100
100
AcDbEntity
  8
dimensions
 62
256
370
-1
  6
ByLayer
100
AcDbDimension
 10
270.0
 20
41.1699999999999875
 30
0.0
 11
268.125
 21
33.0850000000000009
 31
0.0
 70
0
 71
5
 72
1
 41
1.0
 42
0.0
  1

  3
Standard
100
AcDbAlignedDimension
 13
165.75
 23
25.0
 33
0.0
 14
145.8100000000000023
 24
41.1700000000000017
 34
0.0
 50
90.0
100
AcDbRotatedDimension
  0
DIMENSION
  5
101
100
AcDbEntity
  8
dimensions
 62
256
370
-1
  6
ByLayer
100
AcDbDimension
 10
280.0
 20
46.2499999999999787
 30
0.0
 11
278.125
 21
35.625
 31
0.0
 70
0
 71
5
 72
1
 41
1.0
 42
0.0
  1

  3
Standard
100
AcDbAlignedDimension
 13
165.75
 23
25.0
 33
0.0
 14
145.8100000000000023
 24
46.25
 34
0.0
 50
90.0
100
AcDbRotatedDimension
  0
DIMENSION
  5
102
100
AcDbEntity
  8
dimensions
 62
256
370
-1
  6
ByLayer
100
AcDbDimension
 10
290.0
 20
51.329999999999977
 30
0.0
 11
288.125
 21
38.1649999999999991
 31
0.0
 70
0
 71
5
 72
1
 41
1.0
 42
0.0
  1

  3
Standard
100
AcDbAlignedDimension
 13
165.75
 23
25.0
 33
0.0
 14
143.2700000000000102
 24
51.3299999999999983
 34
0.0
 50
90.0
100
AcDbRotatedDimension
  0
DIMENSION
  5
103
100
AcDbEntity
  8
dimensions
 62
256
370
-1
  6
ByLayer
100
AcDbDimension
 10
300.0
 20
53.6199999999999832
 30
0.0
 11
298.125
 21
39.3100000000000023
 31
0.0
 70
0
 71
5
 72
1
 41
1.0
 42
0.0
  1

  3
Standard
100
AcDbAlignedDimension
 13
165.75
 23
25.0
 33
0.0
 14
145.8100000000000023
 24
53.6200000000000045
 34
0.0
 50
90.0
100
AcDbRotatedDimension
  0
DIMENSION
  5
104
100
AcDbEntity
  8
dimensions
 62
256
370
-1
  6
ByLayer
100
AcDbDimension
 10
119.6299999999999955
 20
10.0000000000000036
 30
0.0
 11
118.9399999999999977
 21
11.8750000000000036
 31
0.0
 70
0
 71
5
 72
1
 41
1.0
 42
0.0
  1

  3
Standard
100
AcDbAlignedDimension
 13
118.25
 23
25.0
 33
0.0
 14
119.6299999999999955
 24
35.0600000000000023
 34
0.0
 50
0.0
100
AcDbRotatedDimension
  0
DIMENSION
  5
105
100
AcDbEntity
  8
dimensions
 62
256
370
-1
  6
ByLayer
100
AcDbDimension
 10
121.9200000000000017
 20
-0.0000000000000036
 30
0.0
 11
120.085000000000008
 21
1.8749999999999964
 31
0.0
 70
0
 71
5
 72
1
 41
1.0
 42
0.0
  1

  3
Standard
100
AcDbAlignedDimension
 13
118.25
 23
25.0
 33
0.0
 14
121.9200000000000017
 24
27.4399999999999977
 34
0.0
 50
0.0
100
AcDbRotatedDimension
  0
DIMENSION
  5
106
100
AcDbEntity
  8
dimensions
 62
256
370
-1
  6
ByLayer
100
AcDbDimension
 10
127.0
 20
-10.0
 30
0.0
 11
122.625
 21
-8.125
 31
0.0
 70
0
 71
5
 72
1
 41
1.0
 42
0.0
  1

  3
Standard
100
AcDbAlignedDimension
 13
118.25
 23
25.0
 33
0.0
 14
127.0
 24
27.4399999999999977
 34
0.0
 50
0.0
100
AcDbRotatedDimension
  0
DIMENSION
  5
107
100
AcDbEntity
  8
dimensions
 62
256
370
-1
  6
ByLayer
100
AcDbDimension
 10
132.0799999999999841
 20
-20.0000000000000107
 30
0.0
 11
125.164999999999992
 21
-18.1250000000000107
 31
0.0
 70
0
 71
5
 72
1
 41
1.0
 42
0.0
  1

  3
Standard
100
AcDbAlignedDimension
 13
118.25
 23
25.0
 33
0.0
 14
132.0799999999999841
 24
29.9800000000000004
 34
0.0
 50
0.0
100
AcDbRotatedDimension
  0
DIMENSION
  5
108
100
AcDbEntity
  8
dimensions
 62
256
370
-1
  6
ByLayer
100
AcDbDimension
 10
134.3700000000000045
 20
-30.0
 30
0.0
 11
126.3100000000000023
 21
-28.125
 31
0.0
 70
0
 71
5
 72
1
 41
1.0
 42
0.0
  1

  3
Standard
100
AcDbAlignedDimension
 13
118.25
 23
25.0
 33
0.0
 14
134.3700000000000045
 24
27.4399999999999906
 34
0.0
 50
0.0
100
AcDbRotatedDimension
  0
DIMENSION
  5
109
100
AcDbEntity
  8
dimensions
 62
256
370
-1
  6
ByLayer
100
AcDbDimension
 10
138.1899999999999977
 20
-40.0
 30
0.0
 11
128.2199999999999989
 21
-38.125
 31
0.0
 70
0
 71
5
 72
1
 41
1.0
 42
0.0
  1

  3
Standard
100
AcDbAlignedDimension
 13
118.25
 23
25.0
 33
0.0
 14
138.1899999999999977
 24
21.379999999999999
 34
0.0
 50
0.0
100
AcDbRotatedDimension
  0
DIMENSION
  5
10A
100
AcDbEntity
  8
dimensions
 62
256
370
-1
  6
ByLayer
100
AcDbDimension
 10
140.7299999999999898
 20
-50.0
 30
0.0
 11
129.4900000000000091
 21
-48.125
 31
0.0
 70
0
 71
5
 72
1
 41
1.0
 42
0.0
  1

  3
Standard
100
AcDbAlignedDimension
 13
118.25
 23
25.0
 33
0.0
 14
140.7299999999999898
 24
33.8299999999999983
 34
0.0
 50
0.0
100
AcDbRotatedDimension
  0
DIMENSION
  5
10B
100
AcDbEntity
  8
dimensions
 62
256
370
-1
  6
ByLayer
100
AcDbDimension
 10
143.2700000000000102
 20
-60.0
 30
0.0
 11
130.7599999999999909
 21
-58.125
 31
0.0
 70
0
 71
5
 72
1
 41
1.0
 42
0.0
  1

  3
Standard
100
AcDbAlignedDimension
 13
118.25
 23
25.0
 33
0.0
 14
143.2700000000000102
 24
33.8299999999999983
 34
0.0
 50
0.0
100
AcDbRotatedDimension
  0
DIMENSION
  5
10C
100
AcDbEntity
  8
dimensions
 62
256
370
-1
  6
ByLayer
100
AcDbDimension
 10
145.8100000000000023
 20
-70.0
 30
0.0
 11
132.0300000000000011
 21
-68.125
 31
0.0
 70
0
 71
5
 72
1
 41
1.0
 42
0.0
  1

  3
Standard
100
AcDbAlignedDimension
 13
118.25
 23
25.0
 33
0.0
 14
145.8100000000000023
 24
23.6700000000000017
 34
0.0
 50
0.0
100
AcDbRotatedDimension
  0
DIMENSION
  5
10D
100
AcDbEntity
  8
dimensions
 62
256
370
-1
  6
ByLayer
100
AcDbDimension
 10
149.6299999999999955
 20
-80.0
 30
0.0
 11
133.9399999999999977
 21
-78.125
 31
0.0
 70
0
 71
5
 72
1
 41
1.0
 42
0.0
  1

  3
Standard
100
AcDbAlignedDimension
 13
118.25
 23
25.0
 33
0.0
 14
149.6299999999999955
 24
35.0600000000000094
 34
0.0
 50
0.0
100
AcDbRotatedDimension
  0
DIMENSION
  5
10E
100
AcDbEntity
  8
dimensions
 62
256
370
-1
  6
ByLayer
100
AcDbDimension
 10
151.9200000000000159
 20
-89.9999999999999858
 30
0.0
 11
135.085000000000008
 21
-88.1249999999999858
 31
0.0
 70
0
 71
5
 72
1
 41
1.0
 42
0.0
  1

  3
Standard
100
AcDbAlignedDimension
 13
118.25
 23
25.0
 33
0.0
 14
151.9200000000000159
 24
29.9799999999999933
 34
0.0
 50
0.0
100
AcDbRotatedDimension
  0
DIMENSION
  5
10F
100
AcDbEntity
  8
dimensions
 62
256
370
-1
  6
ByLayer
100
AcDbDimension
 10
157.0
 20
-100.0
 30
0.0
 11
137.625
 21
-98.125
 31
0.0
 70
0
 71
5
 72
1
 41
1.0
 42
0.0
  1

  3
Standard
100
AcDbAlignedDimension
 13
118.25
 23
25.0
 33
0.0
 14
157.0
 24
27.4399999999999942
 34
0.0
 50
0.0
100
AcDbRotatedDimension
  0
DIMENSION
  5
110
100
AcDbEntity
  8
dimensions
 62
256
370
-1
  6
ByLayer
100
AcDbDimension
 10
162.0799999999999841
 20
-110.0
 30
0.0
 11
140.164999999999992
 21
-108.125
 31
0.0
 70
0
 71
5
 72
1
 41
1.0
 42
0.0
  1

  3
Standard
100
AcDbAlignedDimension
 13
118.25
 23
25.0
 33
0.0
 14
162.0799999999999841
 24
27.4399999999999977
 34
0.0
 50
0.0
100
AcDbRotatedDimension
  0
DIMENSION
  5
111
100
AcDbEntity
  8
dimensions
 62
256
370
-1
  6
ByLayer
100
AcDbDimension
 10
164.3700000000000045
 20
-120.0
 30
0.0
 11
141.3100000000000023
 21
-118.125
 31
0.0
 70
0
 71
5
 72
1
 41
1.0
 42
0.0
  1

  3
Standard
100
AcDbAlignedDimension
 13
118.25
 23
25.0
 33
0.0
 14
164.3700000000000045
 24
27.4399999999999977
 34
0.0
 50
0.0
100
AcDbRotatedDimension
  0
DIMENSION
  5
112
100
AcDbEntity
  8
dimensions
 62
256
370
-1
  6
ByLayer
100
AcDbDimension
 10
110.0
 20
28.7500000000000036
 30
0.0
 11
108.125
 21
26.875
 31
0.0
 70
0
 71
5
 72
1
 41
1.0
 42
0.0
  1

  3
Standard
100
AcDbAlignedDimension
 13
118.25
 23
25.0
 33
0.0
 14
138.1899999999999977
 24
28.75
 34
0.0
 50
90.0
100
AcDbRotatedDimension
  0
ENDSEC
  0
SECTION
  2
OBJECTS
  0
DICTIONARY
  5
C
100
AcDbDictionary
280
0
281
1
  3
ACAD_GROUP
350
D
  3
ACAD_LAYOUT
350
1A
  3
ACAD_MLINESTYLE
350
17
  3
ACAD_PLOTSETTINGS
350
19
  3
ACAD_PLOTSTYLENAME
350
E
  3
AcDbVariableDictionary
350
113
  0
DICTIONARY
  5
D
100
AcDbDictionary
280
0
281
1
  0
ACDBDICTIONARYWDFLT
  5
E
100
AcDbDictionary
281
1
  3
Normal
350
F
100
AcDbDictionaryWithDefault
340
F
  0
ACDBPLACEHOLDER
  5
F
  0
DICTIONARY
  5
17
100
AcDbDictionary
280
0
281
1
  3
Standard
350
18
  0
MLINESTYLE
  5
18
100
AcDbMlineStyle
  2
STANDARD
 70
0
  3

 62
256
 51
90.0
 52
90.0
 71
2
 49
0.5
 62
256
  6
BYLAYER
 49
-0.5
 62
256
  6
BYLAYER
  0
DICTIONARY
  5
19
100
AcDbDictionary
280
0
281
1
  0
DICTIONARY
  5
1A
100
AcDbDictionary
281
1
  3
Layout1
350
1E
  3
Layout2
350
26
  3
Model
350
22
  0
LAYOUT
  5
1E
100
AcDbPlotSettings
  1

  2
C:\Program Files\AutoCAD 2002\plotters\DWF ePlot (optimized for plotting).pc3
  4

  6

 40
0.0
 41
0.0
 42
0.0
 43
0.0
 44
0.0
 45
0.0
 46
0.0
 47
0.0
 48
0.0
 49
0.0
140
0.0
141
0.0
142
1.0
143
1.0
 70
688
 72
0
 73
0
 74
5
  7

 75
16
147
1.0
148
0.0
149
0.0
100
AcDbLayout
  1
Layout1
 70
1
 71
1
 10
0.0
 20
0.0
 11
420.0
 21
297.0
 12
0.0
 22
0.0
 32
0.0
 14
100000000000000000000.0
 24
100000000000000000000.0
 34
100000000000000000000.0
 15
-100000000000000000000.0
 25
-100000000000000000000.0
 35
-100000000000000000000.0
146
0.0
 13
0.0
 23
0.0
 33
0.0
 16
1.0
 26
0.0
 36
0.0
 17
0.0
 27
1.0
 37
0.0
 76
0
330
1B
  0
LAYOUT
  5
22
100
AcDbPlotSettings
  1

  2
C:\Program Files\AutoCAD 2002\plotters\DWF ePlot (optimized for plotting).pc3
  4

  6

 40
0.0
 41
0.0
 42
0.0
 43
0.0
 44
0.0
 45
0.0
 46
0.0
 47
0.0
 48
0.0
 49
0.0
140
0.0
141
0.0
142
1.0
143
1.0
 70
1712
 72
0
 73
0
 74
0
  7

 75
0
147
1.0
148
0.0
149
0.0
100
AcDbLayout
  1
Model
 70
1
 71
0
 10
0.0
 20
0.0
 11
12.0
 21
9.0
 12
0.0
 22
0.0
 32
0.0
 14
0.0
 24
0.0
 34
0.0
 15
0.0
 25
0.0
 35
0.0
146
0.0
 13
0.0
 23
0.0
 33
0.0
 16
1.0
 26
0.0
 36
0.0
 17
0.0
 27
1.0
 37
0.0
 76
0
330
1F
  0
LAYOUT
  5
26
100
AcDbPlotSettings
  1

  2
C:\Program Files\AutoCAD 2002\plotters\DWF ePlot (optimized for plotting).pc3
  4

  6

 40
0.0
 41
0.0
 42
0.0
 43
0.0
 44
0.0
 45
0.0
 46
0.0
 47
0.0
 48
0.0
 49
0.0
140
0.0
141
0.0
142
1.0
143
1.0
 70
688
 72
0
 73
0
 74
5
  7

 75
16
147
1.0
148
0.0
149
0.0
100
AcDbLayout
  1
Layout2
 70
1
 71
2
 10
0.0
 20
0.0
 11
12.0
 21
9.0
 12
0.0
 22
0.0
 32
0.0
 14
0.0
 24
0.0
 34
0.0
 15
0.0
 25
0.0
 35
0.0
146
0.0
 13
0.0
 23
0.0
 33
0.0
 16
1.0
 26
0.0
 36
0.0
 17
0.0
 27
1.0
 37
0.0
 76
0
330
23
  0
DICTIONARY
  5
113
100
AcDbDictionary
281
1
  3
DIMASSOC
350
115
  3
HIDETEXT
350
114
  0
DICTIONARYVAR
  5
114
100
DictionaryVariables
280
0
  1
2
  0
DICTIONARYVAR
  5
115
100
DictionaryVariables
280
0
  1
1
  0
ENDSEC
  0
EOF
